#!OML:ASF X:\für Bonn\!DataBase\2005_08_11_Bastian_Final\c3d\Bastian.ASF
:FULLY-SPECIFIED
:DEGREES
47
root 0.547345 13.1061 -0.0954369 171.388 -9.23899 -174.912
lowerback 27.1008 -1.40306 1.73283
upperback 4.61711 -2.25582 0.98276
thorax -9.87628 -1.52963 0.960694
lowerneck -12.1579 -6.41952 -4.86928
upperneck -4.76041 -8.67571 9.26952
head 1.2617 -4.44408 3.42446
rclavicle -2.27608e-014 1.82882e-014
rhumerus 72.5655 2.31569 21.5377
rradius 42.737
rwrist -81.6351
rhand -48.6063 -4.8408
rfingers 7.12502
rthumb -21.2509 -33.6958
lclavicle -2.27608e-014 1.82882e-014
lhumerus 72.1512 -9.8998 -19.4528
lradius 32.4241
lwrist 22.8856
lhand -46.7749 18.0833
lfingers 7.12502
lthumb -19.4909 47.1263
rfemur -36.4344 -8.93345 21.9191
rtibia 101.768
rfoot -35.9727 -4.07773
rtoes -12.6856
lfemur -40.8883 3.80242 -12.9802
ltibia 103.118
lfoot -36.6327 -6.13093
ltoes -28.77
48
root 0.557551 12.816 -0.0773615 171.773 -9.05809 -174.952
lowerback 27.2538 -1.34523 1.69151
upperback 4.442 -2.15917 0.972067
thorax -10.153 -1.47052 0.949312
lowerneck -12.1344 -6.39805 -4.98424
upperneck -4.98234 -8.64682 9.46497
head 1.19974 -4.4403 3.5192
rclavicle 1.26228e-014 -1.39149e-014
rhumerus 72.2764 1.40037 22.2383
rradius 42.7532
rwrist -82.0938
rhand -48.5387 -5.15764
rfingers 7.12502
rthumb -21.186 -34.02
lclavicle 1.26228e-014 -1.39149e-014
lhumerus 71.6902 -9.03364 -20.1879
lradius 32.6336
lwrist 23.3281
lhand -46.7336 18.4534
lfingers 7.12502
lthumb -19.4511 47.5005
rfemur -38.1885 -9.35116 21.9023
rtibia 104.395
rfoot -37.6613 -3.99297
rtoes -12.1593
lfemur -42.9452 4.21389 -13.0017
ltibia 106.161
lfoot -37.9522 -5.85104
ltoes -29.6392
49
root 0.567384 12.5188 -0.056524 172.15 -8.8406 -174.995
lowerback 27.4594 -1.27243 1.64397
upperback 4.25958 -2.04435 0.969916
thorax -10.4653 -1.40307 0.946214
lowerneck -12.1029 -6.36491 -5.10812
upperneck -5.22576 -8.59979 9.62143
head 1.12574 -4.42869 3.60437
rclavicle 1.54058e-014 -1.47101e-014
rhumerus 71.9809 0.519181 22.7822
rradius 42.7342
rwrist -82.4121
rhand -48.4362 -5.454
rfingers 7.12502
rthumb -21.0875 -34.3273
lclavicle 1.54058e-014 -1.47101e-014
lhumerus 71.21 -8.16774 -20.8579
lradius 32.8012
lwrist 23.6764
lhand -46.6921 18.916
lfingers 7.12502
lthumb -19.4112 47.9671
rfemur -40.0521 -9.862 21.9081
rtibia 107.128
rfoot -39.0771 -4.01741
rtoes -11.9475
lfemur -45.1243 4.82671 -12.9966
ltibia 109.264
lfoot -38.8878 -5.94231
ltoes -29.3769
50
root 0.576966 12.2144 -0.0341017 172.463 -8.62 -175.033
lowerback 27.7675 -1.20278 1.60032
upperback 4.08277 -1.93643 0.963731
thorax -10.8252 -1.34105 0.941686
lowerneck -12.0272 -6.32701 -5.18259
upperneck -5.52034 -8.55417 9.76288
head 1.02349 -4.42223 3.67739
rclavicle -1.74931e-014 1.98785e-014
rhumerus 71.6966 -0.341723 23.308
rradius 42.704
rwrist -82.7409
rhand -48.3447 -5.78281
rfingers 7.12502
rthumb -20.9996 -34.6659
lclavicle -1.74931e-014 1.98785e-014
lhumerus 70.7101 -7.34851 -21.4771
lradius 32.9446
lwrist 23.9067
lhand -46.666 19.4508
lfingers 7.12502
lthumb -19.3862 48.5044
rfemur -41.9591 -10.4952 21.9325
rtibia 109.98
rfoot -40.159 -4.12739
rtoes -12.0038
lfemur -47.3554 5.62074 -12.9758
ltibia 112.416
lfoot -39.5594 -6.19885
ltoes -28.691
51
root 0.586156 11.9047 -0.0105244 172.698 -8.40487 -175.113
lowerback 28.1457 -1.11926 1.52446
upperback 3.96006 -1.83439 0.943798
thorax -11.1596 -1.28609 0.942627
lowerneck -11.962 -6.28467 -5.25732
upperneck -5.90461 -8.50781 9.92997
head 0.894575 -4.42143 3.76103
rclavicle 2.22639e-014 -1.90833e-014
rhumerus 71.3434 -1.291 23.9452
rradius 42.7123
rwrist -83.1735
rhand -48.2641 -6.18753
rfingers 7.12502
rthumb -20.9221 -35.0792
lclavicle 2.22639e-014 -1.90833e-014
lhumerus 70.1896 -6.4736 -22.044
lradius 33.0698
lwrist 24.1044
lhand -46.6547 20.0147
lfingers 7.12502
lthumb -19.3753 49.0695
rfemur -43.8416 -11.3133 21.904
rtibia 112.941
rfoot -40.8613 -4.37383
rtoes -12.5304
lfemur -49.5429 6.47082 -12.9815
ltibia 115.574
lfoot -40.0662 -6.69997
ltoes -27.4598
52
root 0.596121 11.5933 0.0116568 172.851 -8.19504 -175.211
lowerback 28.6204 -1.02794 1.3951
upperback 3.83421 -1.73868 0.944661
thorax -11.5462 -1.23235 1.00281
lowerneck -11.8027 -6.23957 -5.34574
upperneck -6.32759 -8.45397 10.0653
head 0.73474 -4.41902 3.84085
rclavicle -1.59028e-015 -1.86858e-014
rhumerus 71.0386 -2.15118 24.4935
rradius 42.7571
rwrist -83.6472
rhand -48.2175 -6.46948
rfingers 7.12502
rthumb -20.8774 -35.3661
lclavicle -1.59028e-015 -1.86858e-014
lhumerus 69.6889 -5.7305 -22.2031
lradius 33.0903
lwrist 23.9641
lhand -46.627 20.5127
lfingers 7.12502
lthumb -19.3487 49.5701
rfemur -45.7157 -12.2904 21.8471
rtibia 116.034
rfoot -41.3297 -4.55297
rtoes -13.1055
lfemur -51.5978 7.46648 -12.968
ltibia 118.697
lfoot -40.5634 -7.29104
ltoes -26.3587
53
root 0.605903 11.2845 0.0325149 172.901 -7.98219 -175.304
lowerback 29.1581 -0.931623 1.27984
upperback 3.76345 -1.64782 0.934698
thorax -11.9026 -1.18689 1.04445
lowerneck -11.6817 -6.17528 -5.35864
upperneck -6.76781 -8.38679 10.1722
head 0.569168 -4.41365 3.89717
rclavicle -2.28602e-014 8.74653e-015
rhumerus 70.6876 -3.0315 25.0538
rradius 42.842
rwrist -84.2285
rhand -48.2171 -6.69032
rfingers 7.12502
rthumb -20.877 -35.587
lclavicle -2.28602e-014 8.74653e-015
lhumerus 69.1739 -4.95715 -22.4465
lradius 33.1312
lwrist 23.9885
lhand -46.6659 20.9995
lfingers 7.12502
lthumb -19.3861 50.0532
rfemur -47.5214 -13.4404 21.7568
rtibia 119.216
rfoot -41.6106 -4.51851
rtoes -13.3483
lfemur -53.4752 8.59063 -12.8988
ltibia 121.736
lfoot -40.9979 -7.94369
ltoes -25.518
54
root 0.615547 10.9797 0.0506431 172.83 -7.778 -175.434
lowerback 29.7768 -0.821882 1.12765
upperback 3.73775 -1.56573 0.914633
thorax -12.2477 -1.14866 1.10017
lowerneck -11.5136 -6.11071 -5.35625
upperneck -7.25807 -8.322 10.2491
head 0.376733 -4.41334 3.94318
rclavicle -3.67752e-015 0
rhumerus 70.3471 -3.8903 25.5498
rradius 42.9186
rwrist -84.852
rhand -48.2768 -6.80316
rfingers 7.12502
rthumb -20.9344 -35.6935
lclavicle -3.67752e-015 0
lhumerus 68.6589 -4.18878 -22.6091
lradius 33.1986
lwrist 24.0552
lhand -46.7607 21.432
lfingers 7.12502
lthumb -19.4772 50.4765
rfemur -49.2297 -14.8478 21.562
rtibia 122.444
rfoot -41.8565 -4.14884
rtoes -13.0936
lfemur -55.1523 9.87898 -12.8272
ltibia 124.664
lfoot -41.3108 -8.53791
ltoes -25.5162
